<?xml version="1.0" encoding="UTF-8" standalone="no"?>
<!-- Designer: Jonas Schnelli
  	 License: MIT
-->

<svg
   xmlns:dc="http://purl.org/dc/elements/1.1/"
   xmlns:cc="http://creativecommons.org/ns#"
   xmlns:rdf="http://www.w3.org/1999/02/22-rdf-syntax-ns#"
   xmlns:svg="http://www.w3.org/2000/svg"
   xmlns="http://www.w3.org/2000/svg"
   xmlns:xlink="http://www.w3.org/1999/xlink"
   xmlns:sodipodi="http://sodipodi.sourceforge.net/DTD/sodipodi-0.dtd"
   xmlns:inkscape="http://www.inkscape.org/namespaces/inkscape"
   version="1.1"
   id="svg2"
   sodipodi:docname="rapecoin.svg"
   inkscape:version="0.48.2 r9819"
   x="0px"
   y="0px"
   width="1024px"
   height="1024px"
   viewBox="-34 -34 580 580"
   enable-background="new 0 0 1024 1024"
   xml:space="preserve"><metadata
   id="metadata41"><rdf:RDF><cc:Work
       rdf:about=""><dc:format>image/svg+xml</dc:format><dc:type
         rdf:resource="http://purl.org/dc/dcmitype/StillImage" /></cc:Work></rdf:RDF></metadata><defs
   id="defs39"><radialGradient
     gradientUnits="userSpaceOnUse"
     r="255.9878"
     cy="256.0027"
     cx="256.0276"
     id="radialGradient3819">
			<stop
   id="stop3821"
   style="stop-color:#00aab4;stop-opacity:1;"
   offset="0" />
			<stop
   id="stop3823"
   style="stop-color:#2e32d1;stop-opacity:1;"
   offset="1" />
		</radialGradient><radialGradient
     inkscape:collect="always"
     xlink:href="#coinShape"
     id="radialGradient3852"
     cx="298.31226"
     cy="256.68091"
     fx="298.31226"
     fy="256.68091"
     r="9.8788004"
     gradientTransform="matrix(1,0,0,1.1647046,29.542682,-52.703354)"
     gradientUnits="userSpaceOnUse" /><radialGradient
     inkscape:collect="always"
     xlink:href="#coinShape"
     id="radialGradient3860"
     cx="298.31226"
     cy="256.68091"
     fx="298.31226"
     fy="256.68091"
     r="9.8788004"
     gradientTransform="matrix(1,0,0,1.1647046,29.542682,-52.703354)"
     gradientUnits="userSpaceOnUse" /><radialGradient
     inkscape:collect="always"
     xlink:href="#coinShape"
     id="radialGradient3862"
     gradientUnits="userSpaceOnUse"
     cx="256.0276"
     cy="256.0027"
     r="255.9878" /></defs><sodipodi:namedview
   pagecolor="#ffffff"
   bordercolor="#666666"
   borderopacity="1"
   objecttolerance="10"
   gridtolerance="10"
   guidetolerance="10"
   inkscape:pageopacity="0"
   inkscape:pageshadow="2"
   inkscape:window-width="1440"
   inkscape:window-height="838"
   id="namedview37"
   showgrid="false"
   inkscape:zoom="0.32593203"
   inkscape:cx="515.26095"
   inkscape:cy="664.84279"
   inkscape:window-x="-8"
   inkscape:window-y="-8"
   inkscape:window-maximized="1"
   inkscape:current-layer="g12" />

	<!-- nice shadow with alpha 0.35 -->
	<filter
   id="dropShadowAlpha">
		<feColorMatrix
   result="matrixOut"
   in="SourceAlpha"
   type="saturate"
   values="0.1"
   id="feColorMatrix4" />
		<feGaussianBlur
   in="matrixOut"
   result="blur-out"
   stdDeviation="6"
   id="feGaussianBlur6" />
		<feColorMatrix
   in="blur-out"
   result="color-out"
   type="matrix"
   values="0 0 0 0   0                 0 0 0 0   0                  0 0 0 0   0                  0 0 0 0.35 0"
   id="feColorMatrix8" />
		<feBlend
   in="SourceGraphic"
   in2="color-out"
   mode="normal"
   id="feBlend10" />
	</filter>
	
	<g
   id="g12"
   transform="matrix(2,0,0,2,-255.97605,-255.99764)">
		<!-- white background circle for making B not transparent but still keep inner shadows -->
		<circle
   cx="255"
   cy="255"
   r="200"
   id="circle14"
   sodipodi:cx="255"
   sodipodi:cy="255"
   sodipodi:rx="200"
   sodipodi:ry="200"
   style="fill:#ffffff;stroke-width:2"
   d="M 455,255 C 455,365.45695 365.45695,455 255,455 144.54305,455 55,365.45695 55,255 55,144.54305 144.54305,55 255,55 c 110.45695,0 200,89.54305 200,200 z" />
	
		<radialGradient
   id="innerBtop"
   cx="277.49051"
   cy="196.44119"
   r="34.3969"
   gradientUnits="userSpaceOnUse"
   gradientTransform="matrix(-0.1721216,0.68193963,-0.46299024,-0.09583172,416.20297,26.034717)"
   fx="277.49051"
   fy="196.44119">
			<stop
   offset="0"
   style="stop-color:#F9AA4B"
   id="stop17" />
			<stop
   offset="1"
   style="stop-color:#F7931A"
   id="stop19" />
		</radialGradient>
		<path
   d="M 259.3963,192.4178 240.664,230.68 c 15.855,3.951 64.735,20.071 72.656,-11.656 1.8159,-7.2865 0.98701,-12.46266 -1.57932,-16.14669 -9.09022,-13.04921 -39.97928,-7.37759 -52.34438,-10.45951 z"
   id="path21"
   style="fill:url(#innerBtop);filter:url(#dropShadowAlpha)"
   inkscape:connector-curvature="0"
   transform="matrix(0.90557413,0,0,1,22.724907,0)"
   sodipodi:nodetypes="cccsc" />
		
		<radialGradient
   id="innerBbottom"
   cx="261.91531"
   cy="284.56711"
   r="39.8381"
   gradientUnits="userSpaceOnUse">
			<stop
   offset="0"
   style="stop-color:#F9AA4B"
   id="stop24" />
			<stop
   offset="1"
   style="stop-color:#F7931A"
   id="stop26" />
		</radialGradient>
		<path
   d="m 236.63637,276.27472 -9.85167,12.59212 c 6.92623,1.72028 33.23589,-3.90623 46.34638,-1.71405 22.92984,3.83404 25.9781,44.55882 31.49992,22.36721 4.34485,-17.42154 -11.33675,-19.39757 -26.84336,-26.89868 -16.87104,-8.16113 -31.23061,-3.87047 -41.15127,-6.3466 z"
   id="path28"
   inkscape:connector-curvature="0"
   style="fill:url(#innerBbottom);filter:url(#dropShadowAlpha)"
   sodipodi:nodetypes="ccscsc" />
				
		<radialGradient
   id="coinShape"
   cx="256.02759"
   cy="256.00269"
   r="255.98779"
   gradientUnits="userSpaceOnUse">
			<stop
   offset="0"
   style="stop-color:#F9AA4B"
   id="stop31" />
			<stop
   offset="1"
   style="stop-color:#F7931A"
   id="stop33" />
		</radialGradient>
		<path
   d="M 317.871,7.656 C 180.751,-26.536 41.847,56.936 7.671,194.096 -26.537,331.232 56.927,470.144 194.031,504.336 331.191,538.535 470.094,455.071 504.287,317.928 538.479,180.776 455.023,41.848 317.871,7.656 z m 50.936,211.872 c -3.688,24.936 -17.512,37.008 -35.864,41.24 25.2,13.12 38.024,33.239 25.809,68.12 -15.16,43.319 -51.176,46.976 -99.072,37.912 l -11.624,46.584 -28.088,-7 11.472,-45.96 c -7.279,-1.809 -14.72,-3.729 -22.384,-5.809 l -11.512,46.177 -28.056,-7 11.624,-46.673 c -6.561,-1.68 -13.225,-3.464 -20.024,-5.168 l -36.552,-9.111 13.943,-32.152 c 0,0 20.696,5.504 20.416,5.096 7.952,1.969 11.48,-3.216 12.872,-6.672 l 18.368,-73.64 0.048,-0.2 13.104,-52.568 c 0.344,-5.968 -1.712,-13.496 -13.088,-16.336 0.439,-0.296 -20.4,-5.072 -20.4,-5.072 l 7.472,-30 38.736,9.673 -0.032,0.144 c 5.824,1.448 11.824,2.824 17.937,4.216 l 11.511,-46.129 28.072,7 -11.28,45.224 c 7.536,1.721 15.12,3.456 22.504,5.297 l 11.2,-44.929 28.088,7 -11.504,46.145 c 35.464,12.215 61.401,30.527 56.304,64.591 z"
   id="path35"
   style="fill:url(#radialGradient3862);filter:url(#dropShadowAlpha)"
   inkscape:connector-curvature="0" />
	</g>
<g
   inkscape:groupmode="layer"
   id="layer1"
   inkscape:label="dog"><path
     style="fill:url(#radialGradient3860);fill-opacity:1;stroke:url(#radialGradient3852);stroke-width:1.044312;stroke-linecap:butt;stroke-linejoin:miter;stroke-miterlimit:4;stroke-opacity:1;stroke-dasharray:none"
     d="m 328.56816,235.27322 c -0.0933,0.0211 -0.30391,0.15824 -0.73221,0.51878 -1.37055,1.15373 -2.43781,3.25842 -4.20429,5.7432 -1.76647,2.48479 -5.14899,6.4876 -5.13331,8.64102 0.0156,2.15341 0.57161,3.30841 2.29109,4.45413 1.71948,1.14572 4.12635,2.53342 6.57412,2.60435 2.44777,0.0709 4.50335,-1.09072 6.28281,-2.01746 1.77945,-0.92673 3.02148,-1.98347 3.51931,-4.24452 0.49783,-2.26104 -3.1874,-6.50253 -4.57432,-9.18075 -1.38692,-2.67821 -2.15263,-4.76295 -3.23588,-5.93709 -1.08325,-1.17414 -0.3852,-0.0797 -0.70859,-0.0943 -0.22233,-0.01 0.1266,-0.53368 -0.0787,-0.48734 z"
     id="path3041"
     inkscape:connector-curvature="0" /></g></svg>